<svg width="211" height="57" viewBox="0 0 211 57" fill="none" xmlns="http://www.w3.org/2000/svg">
<path d="M82.6044 34.2037C82.6044 35.1068 82.4875 35.922 82.2538 36.6495C82.02 37.3719 81.7126 38.0091 81.3314 38.5609C80.9503 39.1128 80.5031 39.5818 79.9899 39.9681C79.4817 40.3595 78.9532 40.678 78.4043 40.9239C77.8555 41.1697 77.2991 41.3528 76.735 41.4732C76.1658 41.5886 75.6322 41.6463 75.1342 41.6463H57.2134V37.0634H75.1342C76.0286 37.0634 76.7223 36.8025 77.2152 36.2807C77.7081 35.764 77.9546 35.0717 77.9546 34.2037C77.9546 33.7823 77.8885 33.3935 77.7564 33.0373C77.6294 32.6861 77.4439 32.3801 77.2 32.1192C76.956 31.8634 76.6562 31.6652 76.3005 31.5247C75.9499 31.3843 75.5611 31.314 75.1342 31.314H64.4473C63.7003 31.314 62.8923 31.1811 62.0233 30.9152C61.1543 30.6493 60.3463 30.2229 59.5993 29.6359C58.8574 29.0489 58.2374 28.2788 57.7394 27.3256C57.2465 26.3724 57 25.2085 57 23.8338C57 22.4592 57.2465 21.2978 57.7394 20.3496C58.2374 19.4014 58.8574 18.6313 59.5993 18.0393C60.3463 17.4474 61.1543 17.0184 62.0233 16.7525C62.8923 16.4866 63.7003 16.3537 64.4473 16.3537H80.2643V20.9366H64.4473C63.5682 20.9366 62.8821 21.2025 62.3892 21.7343C61.8912 22.2611 61.6422 22.9609 61.6422 23.8338C61.6422 24.7168 61.8912 25.4142 62.3892 25.9259C62.8821 26.4326 63.5682 26.6859 64.4473 26.6859H75.1342H75.1724C75.6704 26.701 76.1989 26.7687 76.7579 26.8891C77.3169 27.0146 77.8733 27.2077 78.4272 27.4686C78.9811 27.7244 79.5096 28.0505 80.0127 28.4469C80.5107 28.8382 80.9528 29.3098 81.3391 29.8616C81.7304 30.4185 82.0378 31.0531 82.2614 31.7655C82.4901 32.483 82.6044 33.2957 82.6044 34.2037ZM91.1418 16.3537V26.6859H107.454V16.3537H112.096V41.6463H107.454V31.314H91.1418V41.6463H86.4996V16.3537H91.1418ZM122.212 16.3537V41.6463H117.562V16.3537H122.212ZM153.205 26.9343V31.0657C153.205 32.6059 152.933 34.0231 152.39 35.3175C151.851 36.6068 151.104 37.7206 150.149 38.6587C149.198 39.5919 148.068 40.3243 146.756 40.8561C145.445 41.3829 144.022 41.6463 142.488 41.6463H129.949C129.613 41.6463 129.303 41.5886 129.019 41.4732C128.729 41.3528 128.48 41.1898 128.272 40.9841C128.063 40.7784 127.901 40.5351 127.784 40.2541C127.667 39.9732 127.608 39.6671 127.608 39.336V18.6639C127.608 18.3479 127.667 18.0494 127.784 17.7684C127.901 17.4825 128.063 17.2341 128.272 17.0234C128.48 16.8127 128.729 16.6472 129.019 16.5268C129.303 16.4114 129.613 16.3537 129.949 16.3537H142.488C144.022 16.3537 145.445 16.6196 146.756 17.1514C148.068 17.6781 149.198 18.4081 150.149 19.3412C151.104 20.2794 151.851 21.3982 152.39 22.6975C152.933 23.9969 153.205 25.4092 153.205 26.9343ZM148.563 31.0657V26.9343C148.563 26.0413 148.416 25.226 148.121 24.4886C147.831 23.7461 147.417 23.1139 146.878 22.5922C146.345 22.0654 145.705 21.659 144.958 21.3731C144.216 21.0821 143.392 20.9366 142.488 20.9366H132.251V37.0634H142.488C143.392 37.0634 144.216 36.9179 144.958 36.6269C145.705 36.3409 146.345 35.9346 146.878 35.4078C147.417 34.886 147.831 34.2589 148.121 33.5265C148.416 32.789 148.563 31.9687 148.563 31.0657ZM178.825 26.6859V31.314H164.159V26.6859H178.825ZM180.913 37.0634V41.6463H164.159C163.514 41.6463 162.81 41.5334 162.047 41.3077C161.285 41.0869 160.581 40.7207 159.936 40.209C159.286 39.6972 158.742 39.0325 158.305 38.2147C157.873 37.397 157.657 36.3961 157.657 35.2121V18.6639C157.657 18.3479 157.715 18.0494 157.832 17.7684C157.954 17.4825 158.119 17.2341 158.328 17.0234C158.536 16.8127 158.782 16.6472 159.067 16.5268C159.352 16.4114 159.662 16.3537 159.997 16.3537H180.913V20.9366H162.299V35.2121C162.299 35.8092 162.459 36.2657 162.779 36.5818C163.104 36.9028 163.577 37.0634 164.197 37.0634H180.913ZM211 16.3537V39.6897C211 40.0158 210.939 40.3218 210.817 40.6078C210.69 40.8887 210.522 41.1321 210.314 41.3378C210.106 41.5435 209.859 41.704 209.575 41.8194C209.285 41.9398 208.98 42 208.66 42C208.375 42 208.086 41.9473 207.791 41.842C207.501 41.7366 207.242 41.566 207.013 41.3302L190.045 23.8338V41.6463H185.403V18.3103C185.403 17.8387 185.535 17.4122 185.8 17.031C186.069 16.6497 186.412 16.3662 186.829 16.1806C187.271 16 187.723 15.9548 188.185 16.0451C188.653 16.1354 189.052 16.3512 189.382 16.6923L206.358 34.1661V16.3537H211Z" fill="#5928B1"/>
<path d="M35.7371 12.3446C30.9729 13.6911 23.9431 16.5074 17.5037 22.2802C11.0324 28.3224 15.4256 33.7111 15.4711 33.7645C15.4711 33.7645 13.0995 29.4253 18.8355 24.0791C18.9082 24.0159 26.2303 17.7424 36.8791 14.7331C38.2369 14.3493 39.6095 14.03 40.9588 13.7838L41.0526 13.7669L42.7669 11.0103L42.3461 11.0398C42.3194 11.042 39.644 11.2404 35.7371 12.3446Z" fill="#5928B1"/>
<path d="M43.066 4.61923C41.9691 3.7033 40.8734 2.97848 40.8625 2.97125L40.7963 2.9285L40.7185 2.93762C40.6891 2.94139 37.733 3.30223 33.6618 4.45295C26.3776 6.51112 16.5814 10.7324 11.2769 19.1483C8.7573 22.9714 10.7852 27.5457 10.7852 27.5457L10.7241 26.3815C10.7175 26.2579 10.3694 13.9253 35.8508 6.72328C38.0813 6.09276 40.4768 5.51189 42.9719 4.99515L43.4087 4.90494L43.066 4.61923Z" fill="#764BC4"/>
<path d="M44.6064 6.22949C44.5735 6.23294 41.2213 6.58687 36.5512 7.90638C31.6085 9.30353 24.4116 12.0127 18.1971 16.9827C14.5326 19.8068 12.2134 23.2141 11.8336 26.3312C11.6473 27.8525 13.4445 31.0815 13.4445 31.0815L13.0666 29.9345C13.0494 29.8824 11.4435 24.658 19.5812 18.5964C24.141 15.1992 28.8929 12.8742 34.5345 11.28C37.443 10.458 40.2298 9.91803 43.3104 9.34691L43.4189 9.32679L43.4659 9.22715C43.6986 8.7321 44.8083 6.56424 44.8199 6.54255L44.9999 6.18957L44.6064 6.22949Z" fill="#764BC4"/>
<path d="M8.99159 22.0907C9.29858 17.1958 13.0352 12.673 20.1061 8.64378C23.8323 6.33573 27.9976 4.52242 32.4859 3.25382C36.2924 2.17791 39.5101 1.85667 39.5101 1.85667L36.9224 -1.52588e-05C36.8986 0.00281362 34.5135 0.293559 31.1052 1.25695C9.25029 7.43365 6.54191 18.0759 6.78368 22.3538C7.20701 29.8123 16.06 35.1164 16.06 35.1164C16.06 35.1164 8.5347 29.3842 8.99159 22.0907Z" fill="#BBA5E1"/>
<path d="M9.26292 44.6554C14.0271 43.3088 21.0569 40.4925 27.4963 34.7197C33.9676 28.6776 29.5744 23.2889 29.5289 23.2354C29.5289 23.2354 31.9005 27.5746 26.1645 32.9209C26.0918 32.9841 18.7697 39.2576 8.12087 42.2669C6.76307 42.6507 5.39054 42.97 4.0412 43.2161L3.94744 43.2331L2.23311 45.9897L2.65393 45.9601C2.68058 45.9579 5.35604 45.7596 9.26292 44.6554Z" fill="#5928B1"/>
<path d="M1.934 52.3807C3.0309 53.2967 4.12655 54.0215 4.13752 54.0287L4.20369 54.0715L4.28145 54.0623C4.31093 54.0586 7.26704 53.6977 11.3382 52.547C18.6224 50.4888 28.4186 46.2675 33.7231 37.8516C36.2427 34.0285 34.2148 29.4543 34.2148 29.4543L34.2759 30.6185C34.2825 30.742 34.6306 43.0747 9.14915 50.2767C6.91866 50.9072 4.52323 51.4881 2.02808 52.0048L1.59126 52.095L1.934 52.3807Z" fill="#764BC4"/>
<path d="M0.393612 50.7705C0.426537 50.767 3.7787 50.4131 8.44883 49.0936C13.3915 47.6964 20.5884 44.9873 26.8029 40.0173C30.4674 37.1931 32.7866 33.7859 33.1664 30.6688C33.3527 29.1475 31.5555 25.9185 31.5555 25.9185L31.9334 27.0654C31.9506 27.1176 33.5565 32.3419 25.4188 38.4036C20.859 41.8007 16.1071 44.1258 10.4655 45.72C7.55701 46.5419 4.77024 47.0819 1.68963 47.6531L1.58113 47.6732L1.5341 47.7728C1.30142 48.2679 0.191666 50.4357 0.180061 50.4574L6.86646e-05 50.8104L0.393612 50.7705Z" fill="#764BC4"/>
<path d="M36.0084 34.9093C35.7014 39.8042 31.9648 44.3269 24.8939 48.3562C21.1677 50.6642 17.0024 52.4776 12.5141 53.7461C8.70759 54.8221 5.48996 55.1433 5.48996 55.1433L8.07761 57C8.10144 56.9972 10.4865 56.7064 13.8948 55.743C35.7497 49.5663 38.4581 38.9241 38.2163 34.6462C37.793 27.1877 28.94 21.8836 28.94 21.8836C28.94 21.8836 36.4653 27.6158 36.0084 34.9093Z" fill="#BBA5E1"/>
</svg>
